inDegrees=no
num_controls=7
num_derivatives=13
num_iterations=101
num_multipliers=7
num_parameters=0
num_slacks=7
num_states=26
objective=0.471563
objective_accelerations=0.009082
objective_balance=0.000442
objective_effort=0.020454
objective_height=0.436343
objective_ligament=0.005241
solver_duration=1309.290184
status=Solve_Succeeded
success=true
DataType=double
version=3
OpenSimVersion=4.5
endheader
time	/jointset/ground_pelvis/pelvis_tilt/value	/jointset/ground_pelvis/pelvis_tx/value	/jointset/ground_pelvis/pelvis_ty/value	/jointset/hip_r/hip_flexion_r/value	/jointset/hip_r/hip_adduction_r/value	/jointset/hip_r/hip_rotation_r/value	/jointset/back/lumbar_extension/value	/jointset/patellofemoral_r/patellar_flexion_r/value	/jointset/knee_r/knee_flexion_r/value	/jointset/knee_r/knee_adduction_r/value	/jointset/knee_r/knee_rotation_r/value	/jointset/ankle_r/ankle_angle_r/value	/jointset/subtalar_r/subtalar_angle_r/value	/jointset/ground_pelvis/pelvis_tilt/speed	/jointset/ground_pelvis/pelvis_tx/speed	/jointset/ground_pelvis/pelvis_ty/speed	/jointset/hip_r/hip_flexion_r/speed	/jointset/hip_r/hip_adduction_r/speed	/jointset/hip_r/hip_rotation_r/speed	/jointset/back/lumbar_extension/speed	/jointset/patellofemoral_r/patellar_flexion_r/speed	/jointset/knee_r/knee_flexion_r/speed	/jointset/knee_r/knee_adduction_r/speed	/jointset/knee_r/knee_rotation_r/speed	/jointset/ankle_r/ankle_angle_r/speed	/jointset/subtalar_r/subtalar_angle_r/speed	/forceset/tau_hip_flexion_r	/forceset/tau_hip_adduction_r	/forceset/tau_hip_rotation_r	/forceset/tau_knee_flexion_r	/forceset/tau_ankle_angle_r	/forceset/tau_subtalar_angle_r	/forceset/tau_lumbar_extension	lambda_cid13_p0	lambda_cid14_p0	lambda_cid14_p1	lambda_cid14_p2	lambda_cid14_p3	lambda_cid14_p4	lambda_cid14_p5	/jointset/ground_pelvis/pelvis_tilt/accel	/jointset/ground_pelvis/pelvis_tx/accel	/jointset/ground_pelvis/pelvis_ty/accel	/jointset/hip_r/hip_flexion_r/accel	/jointset/hip_r/hip_adduction_r/accel	/jointset/hip_r/hip_rotation_r/accel	/jointset/back/lumbar_extension/accel	/jointset/patellofemoral_r/patellar_flexion_r/accel	/jointset/knee_r/knee_flexion_r/accel	/jointset/knee_r/knee_adduction_r/accel	/jointset/knee_r/knee_rotation_r/accel	/jointset/ankle_r/ankle_angle_r/accel	/jointset/subtalar_r/subtalar_angle_r/accel	gamma_cid13_p0	gamma_cid14_p0	gamma_cid14_p1	gamma_cid14_p2	gamma_cid14_p3	gamma_cid14_p4	gamma_cid14_p5
1.5	0.2605192031339734	0.1637680608389749	0.9210733811718227	0.01581432959110967	-0.2308566131853148	-0.1928950868927738	-0.4717803539414501	0.5257847409807337	0.5257847409807338	0.05758050654746773	0.1745045640904216	0.319102324396781	0.1374977058169862	-0.4493134312197078	-0.03079321161951732	0.08499882592907891	0.1202088199494961	0.04065291347646556	-0.1342767692823032	0.6086250815486138	-0.8034354872729139	-0.8034354872729131	0.1252796730063782	7.957908570008814e-05	-0.5198014128740408	-0.1450146553509542	0.091050598859439	-0.007572553577662009	0.01192134573689189	-0.2944696787697352	-0.04567454629953906	-0.02559549767122201	0.03998050869625429	-27.68267491004183	-60.85189892184119	-19.2338305564953	0.5904443419880411	12.53302149033064	-663.0291860219299	59.10578630774643	-0.5339993813373203	-0.2667107633382481	-0.0556081819067878	0.4150029231762569	-0.008713097368362425	-0.2077181046438869	0.2192809901527097	-0.8929071898362761	-0.8929071898362761	0.2635536130905819	-0.003207731231302665	-0.8580169852003824	-0.2245485187450816	1.232665396619523e-08	2.370087879480081e-10	-1.004763640034756e-07	1.037250412720996e-07	1.040887954052329e-08	-1.824672118314031e-08	-1.498822833988171e-07
1.51	0.2559998533154145	0.1634468575004873	0.9219203197561316	0.01703719316194442	-0.2304507727806296	-0.1942480322072239	-0.4656836844683478	0.5177071317412354	0.5177071317412358	0.05884669488069104	0.1745053109584226	0.313862265909945	0.1360363742861975	-0.4544926771357847	-0.03344221703208572	0.08436637202397999	0.1243430574726649	0.04050288780324876	-0.136303846510897	0.6106332109764504	-0.8119668869314468	-0.8119668869314459	0.127952061263658	7.214321577380851e-05	-0.528130607444393	-0.1472295922199035	0.09082148502441435	-0.008601490716581872	0.01152919337572635	-0.2917056040542158	-0.04307918330947767	-0.02595065219560759	0.03912561114824473	-27.8977971137576	-59.93853778474013	-19.12543608214355	0.455837923164062	12.11320287822902	-661.8692297482651	59.19542087171711	-0.5003079995722175	-0.2632075549778112	-0.07044384727519902	0.4095092391512429	-0.01997561600854904	-0.1989172237886521	0.1802386047881313	-0.8153379779562884	-0.8153379779562155	0.2681854044561518	0.000858144957529772	-0.8084164368429969	-0.2166599945022552	1.302973871820682e-08	1.692018842287685e-09	-1.059622465416816e-07	1.153437516660475e-07	1.019957996004465e-08	-1.285719863317664e-08	-1.642138509052317e-07
1.52	0.2514306268771289	0.1630993216829217	0.9227602578308969	0.01830077412246365	-0.2300467982954187	-0.1956209912323243	-0.4595692017638293	0.5095477921803331	0.5095477921803335	0.06013942789096904	0.1745060573996906	0.3085413063286273	0.1345535546420129	-0.4592887551650359	-0.03605970743512119	0.08359872402033089	0.1283522978863939	0.04027972958162614	-0.1382795114123396	0.6121877278318472	-0.8197815515537583	-0.8197815515537571	0.1305886084173168	7.949373908034419e-05	-0.5359816317703598	-0.1493122780301488	0.09059237118938969	-0.009630427855501729	0.01113704101456081	-0.2889415293386973	-0.04048382031941628	-0.02630580671999317	0.03827071360023671	-28.10548830318091	-59.03177531972931	-19.0172586194698	0.3201941583358296	11.71497526928159	-660.7924018904071	59.30548456456149	-0.4573658039721568	-0.2604077614316638	-0.08264700161682376	0.3900035012881068	-0.02333960704952614	-0.1974356392136497	0.1285584756647698	-0.7495601825918939	-0.74956018259201	0.2563853923663872	-0.0002504525847396096	-0.7623829363233491	-0.1980983070042854	1.348492902194031e-08	2.989408917317621e-09	-1.085522938565119e-07	1.241826251503812e-07	9.828416531921561e-09	-8.101566780714735e-09	-1.741522901433599e-07
1.53	0.2468154331584347	0.1627257917312338	0.9235918586698276	0.01960373310929198	-0.2296454004393605	-0.1970134064563446	-0.4534414962435797	0.5013139239756305	0.5013139239756307	0.06145831068792524	0.1745068888147014	0.3031442858123385	0.1330506111548542	-0.4636816431361374	-0.03863875226366516	0.08269967687212582	0.1322166069244668	0.03998981081308942	-0.1401934793232028	0.6132758117935115	-0.8268636003731927	-0.8268636003731928	0.1331751759710789	8.670045825009411e-05	-0.543334419578658	-0.1512492638985029	0.0903440511115241	-0.01076618016240932	0.01075064033770453	-0.2862183198252867	-0.0376529347374863	-0.02666299713627288	0.03743436715980196	-28.30528427607917	-58.04362128078112	-18.89792648899727	0.1852990515444817	11.23031623697173	-659.6459055014057	59.44407834039164	-0.4199975706938052	-0.2555214488459798	-0.09679897229367548	0.3812114321838553	-0.03330667953525909	-0.1868494102041739	0.08729869272983509	-0.6682566354681937	-0.6682566354683164	0.2578712789920747	0.001212498639058585	-0.7085161892062829	-0.187426375221571	1.367673147437834e-08	4.119327764330958e-09	-1.080655162465053e-07	1.300679219182496e-07	9.285272765676241e-09	-4.019443794348449e-09	-1.794230305964339e-07
1.54	0.2421583611046267	0.1623266976102044	0.9244138159571023	0.02094464855192445	-0.2292471995045435	-0.1984246557681102	-0.4473052368164503	0.4930130894019638	0.4930130894019637	0.06280267492884119	0.1745077935497983	0.2976763795207421	0.1315291122793179	-0.4676644221878252	-0.04117254130341265	0.08167001368906771	0.1359435890472185	0.03964034533337388	-0.1420463289613968	0.6138985092077912	-0.8331748253465864	-0.833174825346587	0.1356848972092778	9.415775627041658e-05	-0.5501587868318855	-0.1530233557056811	0.09009573103365853	-0.01190193246931691	0.01036423966084823	-0.2834951103118761	-0.0348220491555563	-0.02702018755255257	0.03659802071936723	-28.49673544980176	-57.06131263842166	-18.77911688891987	0.04991487809426119	10.76517112824263	-658.5703557110166	59.60167946140831	-0.3753440200894242	-0.2513566036723653	-0.1087702085874304	0.3625381182238663	-0.03524894928511585	-0.1852119846797932	0.03548116618783492	-0.5953954133837223	-0.5953954133837221	0.2410161292536211	-0.0002003368144730168	-0.6566988253092177	-0.1655194947690998	1.411324386034546e-08	5.286697453237348e-09	-1.104490030671748e-07	1.381060482843162e-07	8.98439708351146e-09	3.723505400192247e-10	-1.88498273680638e-07
1.55	0.2374636090793102	0.1619025171729968	0.9252248441524058	0.0223220003551565	-0.2288528601081908	-0.1998539618305125	-0.4411651455726995	0.4846530046849077	0.4846530046849076	0.0641719683622517	0.174508721329854	0.2921428888325659	0.129990566973359	-0.4712116032249241	-0.04365352167073924	0.0805150553802552	0.1394970578600727	0.03921145855105122	-0.1437910970312976	0.6140392927181381	-0.8387065712053915	-0.8387065712053917	0.138177313157085	8.835034477621061e-05	-0.5564464644911463	-0.1546679437391401	0.08982616053155895	-0.01310121885928193	0.009986201510187247	-0.2808246796211255	-0.03175855169193186	-0.02741422781558853	0.03578654520443045	-28.67942574332896	-56.00322561239206	-18.6692910158623	-0.07690002892131796	10.22029164737672	-657.4502968857743	59.7463141365642	-0.3332473002164735	-0.2449632930412976	-0.1219425889290086	0.3472950129224533	-0.04910084574913239	-0.1655182546690699	-0.008690080176368204	-0.5117351894126211	-0.5117351894125345	0.2538783152265157	-0.001205060976022208	-0.6008662352372844	-0.1612644684365309	1.483170464798741e-08	6.497217025194427e-09	-1.161395336884056e-07	1.486246087526545e-07	8.962656367787284e-09	5.120940123171083e-09	-2.019569654485354e-07
1.56	0.2327356168126834	0.1614538280241602	0.9260237059752412	0.02373399559653835	-0.2284632880402699	-0.2012999973809174	-0.4350260598985721	0.4762416683058068	0.4762416683058067	0.06556629075267671	0.1745095042122628	0.2865493085679965	0.1284361085849049	-0.4743124704498777	-0.04607428362920551	0.07923673919540873	0.1428722766771754	0.0386868796470006	-0.1453922265619276	0.6136973952831061	-0.8434251577555445	-0.8434251577555443	0.140690688612182	6.517822691689187e-05	-0.5621767021105185	-0.1562059722046881	0.08955659002945938	-0.01430050524924694	0.009608163359526252	-0.2781542489303766	-0.02869505422830742	-0.02780826807862447	0.03497506968949745	-28.85299938415643	-54.95002262013843	-18.56003528434178	-0.2039498370071589	9.692212102640051	-656.3873677600602	59.90914224834396	-0.2860812576603606	-0.239312921900301	-0.133441783794226	0.3268881190733998	-0.05438737363070608	-0.1564842768256414	-0.06105502288789431	-0.4327635516532299	-0.4327635516533133	0.2452080307115886	-0.003673278087495569	-0.5452108173315529	-0.1442075811868822	1.542250292480701e-08	7.713468946838406e-09	-1.208500701055207e-07	1.581433335418983e-07	8.842763320689371e-09	1.038430290565295e-08	-2.138960126351326e-07
1.57	0.227978924621361	0.1609812523646604	0.9268091911971972	0.02517878032335228	-0.2280793452301197	-0.2027615175087192	-0.4288928711075179	0.4677872349118581	0.4677872349118581	0.06698555652129368	0.1745100255448903	0.2809012861518548	0.1268669671587338	-0.476948114511503	-0.048428882530656	0.077841090815828	0.1460570433477334	0.03809570869895351	-0.1469087142486294	0.6128580156326624	-0.8473158879252412	-0.8473158879252416	0.1431330675588832	4.54748457690015e-05	-0.5673240110764644	-0.1575866073259636	0.08927872155110066	-0.01556403407648821	0.009233541279161607	-0.2755582469314281	-0.02541093084751918	-0.02822406819214767	0.03418255038593539	-29.01714739897321	-53.82554386269101	-18.45234941845642	-0.3254955013209432	9.087014591052432	-655.3071042294159	60.08270025704758	-0.2406271729009383	-0.2317368211508032	-0.1455045836291153	0.3101280151040354	-0.06235651846537978	-0.1487427883861609	-0.1077315303834532	-0.3453860036874389	-0.3453860036874555	0.2393392781684567	-0.0001349374726159572	-0.483922182503194	-0.1296350428308967	1.585372306309871e-08	8.936886305591006e-09	-1.243356137674911e-07	1.664122637322739e-07	8.600179859374285e-09	1.629113218729733e-08	-2.239355040951044e-07
